<svg version="1.1" id="Layer_1" xmlns="http://www.w3.org/2000/svg" xmlns:xlink="http://www.w3.org/1999/xlink" x="0px" y="0px"
	 width="100%" viewBox="0 0 496 496" enable-background="new 0 0 496 496" xml:space="preserve">
<path fill="#000000" opacity="1.000000" stroke="none" 
	d="
M216.030029,323.030029 
	C192.033524,307.482483 177.583435,285.678192 172.941162,258.082184 
	C163.343384,201.028030 199.360840,155.447205 249.874619,145.025467 
	C252.635315,144.455887 255.553986,144.942017 258.209808,143.653503 
	C261.403931,142.103790 261.496277,140.443817 258.775848,138.234863 
	C254.395844,134.678375 250.158585,130.944305 245.902573,127.237556 
	C243.242844,124.921082 243.792953,122.830338 246.223740,120.563126 
	C251.490479,115.650757 257.413208,112.868767 264.770752,114.060593 
	C270.563873,114.999001 276.454285,114.995575 282.192322,114.373848 
	C288.955994,113.640999 293.612885,116.879074 298.238403,120.809502 
	C300.704956,122.905365 300.612488,125.117874 298.307800,127.158928 
	C294.324890,130.686310 290.305420,134.182434 286.139618,137.487961 
	C284.659088,138.662750 282.975159,139.499161 283.235443,141.694794 
	C283.544006,144.297623 285.682037,144.486450 287.672028,144.876877 
	C303.846252,148.050308 318.269287,154.977997 331.084412,165.284042 
	C332.661133,166.552063 334.678802,167.585449 335.290955,170.736115 
	C330.136658,167.784805 325.698944,164.988449 321.044342,162.618073 
	C273.270294,138.288834 215.174164,158.182617 192.416809,206.594757 
	C175.227295,243.162354 187.435791,289.077240 221.910538,312.970032 
	C254.231934,335.370575 288.284668,337.040070 323.332794,319.314178 
	C324.519745,318.713837 325.674225,318.048370 326.869904,317.466766 
	C327.127136,317.341614 327.497253,317.448517 327.805786,317.448517 
	C323.885803,325.778198 299.683136,335.591125 273.321472,338.002289 
	C252.845184,339.875153 233.730225,334.334656 216.030029,323.030029 
z"/>
<path fill="#000000" opacity="1.000000" stroke="none" 
	d="
M351.648407,234.442673 
	C347.602051,208.437347 334.849762,188.472198 312.378204,175.606201 
	C290.121735,162.863327 266.953888,162.058823 243.526428,173.022934 
	C239.731476,174.798996 238.637009,178.092804 237.688934,181.695007 
	C234.705338,181.009872 232.565079,178.676712 228.853531,179.612091 
	C230.508087,176.315857 231.989029,173.913040 231.908524,169.777756 
	C237.517258,174.887497 241.616623,171.482101 246.177216,169.052460 
	C272.681763,154.932327 299.608734,154.117447 325.658173,169.356796 
	C350.644409,183.974167 363.903564,206.388306 365.408173,235.662506 
	C366.389191,254.750336 362.492004,272.380646 351.588440,288.183899 
	C338.872101,306.614471 321.256134,317.696838 299.395752,322.134033 
	C297.650970,322.488220 295.800262,322.791809 293.091461,321.679413 
	C299.118378,319.538574 304.596222,317.978943 309.506378,315.148376 
	C338.108276,298.660217 352.814514,274.245331 351.832520,240.891251 
	C351.773712,238.893829 351.719330,236.896255 351.648407,234.442673 
z"/>
<path fill="#000000" opacity="1.000000" stroke="none" 
	d="
M270.841370,283.663391 
	C282.593933,283.162994 289.330383,276.443115 288.792755,266.377106 
	C288.534241,261.537567 285.851776,258.432037 282.059204,255.946045 
	C275.201721,251.451065 267.134186,250.463593 259.523834,248.160751 
	C250.751740,245.506332 242.523880,241.586700 239.938217,232.116760 
	C234.419006,211.902649 243.277359,197.316269 265.799927,194.819290 
	C273.941833,193.916626 282.101349,194.709030 289.717163,198.292358 
	C292.985291,199.830063 295.664032,201.860092 296.533478,205.698196 
	C297.345367,209.282288 296.228119,211.869217 293.109314,213.707581 
	C290.142273,215.456512 288.084747,214.984039 285.304749,212.476593 
	C277.787994,205.696747 268.938721,203.072739 259.022552,206.928360 
	C254.033325,208.868271 250.639771,212.262573 250.238861,217.967484 
	C249.806946,224.113800 251.719681,229.096069 257.199371,232.388046 
	C263.030212,235.890976 269.863953,236.322845 276.099152,238.590302 
	C278.284607,239.385056 280.566284,239.912689 282.762238,240.681564 
	C300.948181,247.049179 307.015778,268.954407 294.552032,283.748505 
	C289.232391,290.062744 281.737061,292.682068 273.889740,293.817413 
	C263.117981,295.375824 252.551102,294.245667 243.035416,288.516815 
	C236.489365,284.575775 236.789688,277.099518 243.237320,273.816864 
	C245.107803,272.864563 246.505295,272.830231 248.063293,274.528412 
	C254.049606,281.053406 261.631256,283.850098 270.841370,283.663391 
z"/>
</svg>