<?xml version="1.0" encoding="utf-8"?>
<!-- Generator: Adobe Illustrator 25.0.1, SVG Export Plug-In . SVG Version: 6.00 Build 0)  -->
<svg version="1.1" id="Layer_1" xmlns="http://www.w3.org/2000/svg" xmlns:xlink="http://www.w3.org/1999/xlink" x="0px" y="0px"
	 viewBox="0 0 2248 784" style="enable-background:new 0 0 2248 784;" xml:space="preserve">
<style type="text/css">
	.st0{fill:#003366;}
	.st1{fill:#B0B6C0;}
</style>
<g>
	<polygon class="st0" points="384.3,192.4 548.3,192.4 548.3,204.2 384.3,294.4 	"/>
	<polygon class="st1" points="164.5,548.3 0.5,548.3 0.5,536.3 164.5,446.2 	"/>
	<rect x="384.3" y="0.5" class="st0" width="164" height="164"/>
	<polygon class="st0" points="192.4,384.3 220.6,384.3 192.4,399.7 	"/>
	<rect x="0.5" y="192.4" class="st0" width="164" height="164"/>
	<rect x="384.3" y="384.3" class="st1" width="164" height="164"/>
	<rect x="192.3" y="0.5" class="st0" width="164" height="164"/>
	<rect x="0.5" y="0.5" class="st0" width="164" height="164"/>
	<polygon class="st0" points="0.5,384.3 164.5,384.3 164.5,415 0.5,505.1 	"/>
	<polygon class="st1" points="548.3,356.4 384.3,356.4 384.3,325.5 548.3,235.4 	"/>
	<polygon class="st0" points="192.4,192.4 192.4,356.4 192.7,356.3 271.5,356.3 356.4,309.7 356.4,192.4 	"/>
	<polygon class="st1" points="277.3,384.3 192.4,430.9 192.4,548.3 356.4,548.3 356.4,384.3 	"/>
	<polygon class="st1" points="356.4,356.4 328.3,356.4 356.4,340.9 	"/>
	<path class="st0" d="M613.4,341.4c14.7-2.5,35.4-4.4,64.5-4.4c29.5,0,50.8,5.6,64.9,17.2c13.5,10.3,22.2,27.9,22.2,48.6
		c0,21-6.6,38.5-19.1,50.1c-16.3,15.1-40.7,22.3-68.9,22.3c-6.3,0-11.9-0.3-16.3-1.3v75.8h-47.3V341.4z M660.7,437.3
		c4.1,1,9.1,1.2,16,1.2c25.4,0,41.1-12.8,41.1-34.1c0-19.4-13.2-31-37.3-31c-9.7,0-16.3,0.6-19.8,1.6V437.3z"/>
	<path class="st0" d="M783.5,447c0-22.6-0.3-37.3-1.3-50.4H823l1.9,28.5h1.3c7.8-22.6,26.3-32,41.4-32c4.4,0,6.6,0.3,10,0.9v44.8
		c-4.1-0.6-7.8-1.2-13.2-1.2c-17.5,0-29.5,9.1-32.6,24.1c-0.6,3.1-0.9,6.6-0.9,10.7v77.4h-47.6L783.5,447z"/>
	<path class="st0" d="M962.8,553.2c-44.8,0-79.3-29.4-79.3-79c0-49.5,32.6-81.1,82.1-81.1c46.7,0,78,32.3,78,78.7
		c0,55.8-39.8,81.5-80.5,81.5H962.8z M963.7,519c18.8,0,30.4-18.5,30.4-46c0-22.6-8.8-45.7-30.4-45.7c-22.6,0-31.3,23.2-31.3,46.1
		c0,26,11,45.7,31,45.7H963.7z"/>
	<path class="st0" d="M1211.2,527.5c0,29.4-6,53.6-23.5,68.9c-16.6,14.4-39.5,18.8-62,18.8c-20.4,0-41.4-4.1-55.1-11.6l9.4-36.4
		c9.7,5.7,26.3,11.6,44.5,11.6c22.6,0,39.8-11.9,39.8-40.4v-9.7h-0.6c-9.1,12.5-23.8,19.7-41.4,19.7c-37.9,0-64.9-30.7-64.9-74.6
		c0-49.5,31.6-80.8,69.6-80.8c21,0,34.1,9.1,42,21.6h0.6l1.6-18.2h41.4c-0.6,10-1.3,22.9-1.3,45.7V527.5z M1163.6,458.9
		c0-2.8-0.3-6-0.9-8.8c-3.5-12.5-12.5-21-25.7-21c-17.5,0-31.3,15.7-31.3,43.6c0,22.9,11.3,40.7,31,40.7c12.5,0,22.2-8.1,25.4-19.1
		c1.3-3.8,1.6-8.8,1.6-12.9V458.9z"/>
	<path class="st0" d="M1241.9,447c0-22.6-0.3-37.3-1.3-50.4h40.7l1.9,28.5h1.3c7.8-22.6,26.3-32,41.4-32c4.4,0,6.6,0.3,10,0.9v44.8
		c-4.1-0.6-7.8-1.2-13.1-1.2c-17.6,0-29.5,9.1-32.6,24.1c-0.6,3.1-0.9,6.6-0.9,10.7v77.4h-47.6L1241.9,447z"/>
	<path class="st0" d="M1387.3,488c1.6,20.1,21,29.4,43.2,29.4c16.3,0,29.5-2.2,42.3-6.6l6.3,32.3c-15.7,6.6-34.8,9.7-55.4,9.7
		c-52,0-81.8-30.1-81.8-78.3c0-38.8,24.4-81.8,77.4-81.8c49.5,0,68.3,38.5,68.3,76.5c0,8.1-0.9,15.3-1.6,19.1L1387.3,488z
		 M1443.4,455.4c0-11.3-5-31-26.7-31c-20.4,0-28.5,18.5-29.8,31H1443.4z"/>
	<path class="st0" d="M1507.9,508.4c8.8,5.3,27,11.3,41.1,11.3c14.4,0,20.4-4.7,20.4-12.5c0-8.1-4.7-11.9-22.2-17.8
		c-32-10.4-44.2-27.9-43.9-45.8c0-28.8,24.4-50.5,62.4-50.5c17.8,0,33.5,4.4,42.9,9.1l-8.1,32.6c-6.9-3.4-20.4-8.5-33.2-8.5
		c-11.6,0-18.2,4.7-18.2,12.2c0,7.5,6,11.3,24.7,17.9c29.2,9.7,41.1,24.8,41.4,47c0,28.8-22.3,49.8-66.1,49.8
		c-20.1,0-37.9-4.7-49.5-11L1507.9,508.4z"/>
	<path class="st0" d="M1636.1,508.4c8.8,5.3,26.9,11.3,41.1,11.3c14.4,0,20.4-4.7,20.4-12.5c0-8.1-4.7-11.9-22.3-17.8
		c-32-10.4-44.2-27.9-43.8-45.8c0-28.8,24.4-50.5,62.3-50.5c17.9,0,33.5,4.4,42.9,9.1l-8.2,32.6c-6.9-3.4-20.3-8.5-33.2-8.5
		c-11.6,0-18.2,4.7-18.2,12.2c0,7.5,5.9,11.3,24.7,17.9c29.1,9.7,41.1,24.8,41.4,47c0,28.8-22.2,49.8-66.1,49.8
		c-20,0-37.9-4.7-49.5-11L1636.1,508.4z"/>
	<path class="st0" d="M1765.8,516.5c12.2,7.8,29.8,13.8,48.5,13.8c27.9,0,44.2-14.4,44.2-36c0-19.4-11.3-31-39.8-41.7
		c-34.5-12.5-55.8-30.7-55.8-60.1c0-32.9,27.2-57.3,68.3-57.3c21.3,0,37.3,5,46.4,10.3l-7.5,22.3c-6.6-4.1-20.7-10-39.8-10
		c-28.8,0-39.8,17.2-39.8,31.6c0,19.8,12.8,29.4,42,40.7c35.7,14.1,53.6,31,53.6,62c0,32.6-23.8,61.1-73.6,61.1
		c-20.4,0-42.6-6.3-53.9-13.8L1765.8,516.5z"/>
	<path class="st0" d="M1977.9,553.2c-40.8,0-72.7-30.1-72.7-78c0-50.8,33.5-80.5,75.2-80.5c43.6,0,73,31.6,73,77.7
		c0,56.4-39.2,80.8-75.2,80.8H1977.9z M1978.8,532.5c26.3,0,46.1-24.7,46.1-59.2c0-25.7-12.8-58-45.4-58
		c-32.3,0-46.4,30.1-46.4,58.9c0,33.2,18.8,58.3,45.4,58.3H1978.8z"/>
	<path class="st0" d="M2082.9,549.7V419.1h-21v-21h21v-7.2c0-21.3,5-40.7,17.9-52.9c10.3-10,24.1-14.1,36.7-14.1
		c10,0,18.2,2.2,23.5,4.4l-3.4,21.3c-4.4-1.9-9.7-3.5-17.9-3.5c-23.2,0-29.4,20.7-29.4,43.9v8.2h36.7v21h-36.4v130.7H2082.9z"/>
	<path class="st0" d="M2200.7,361.7v36.4h39.5v21h-39.5v81.8c0,18.8,5.3,29.4,20.7,29.4c7.5,0,11.9-0.6,16-1.9l1.3,21
		c-5.3,1.9-13.8,3.8-24.4,3.8c-12.9,0-23.2-4.4-29.8-11.6c-7.5-8.5-10.7-21.9-10.7-39.8v-82.7h-23.5v-21h23.5v-27.9L2200.7,361.7z"
		/>
	<path class="st0" d="M31.6,754.7l-21.4-71.2h12.6l11.2,41.2l4.1,15.3c0.2-0.8,1.4-5.6,3.8-14.6l11.2-41.8h12.2l10.8,41.4l3.5,13.6
		l4.1-13.7l12.4-41.2h11.7l-22.5,71.2H73l-11.2-42.6L58.8,700l-14.4,54.8H31.6z"/>
	<path class="st0" d="M182.2,754.7l-21.4-71.2h12.6l11.2,41.2l4.1,15.3c0.2-0.8,1.5-5.6,3.8-14.6l11.2-41.8H216l10.8,41.4l3.5,13.6
		l4.1-13.7l12.4-41.2h11.7l-22.5,71.2h-12.3l-11.2-42.6l-2.9-12.2l-14.4,54.8H182.2z"/>
	<path class="st0" d="M332.7,754.7l-21.4-71.2h12.6l11.2,41.2l4.1,15.3c0.2-0.8,1.5-5.6,3.8-14.6l11.2-41.8h12.2l10.8,41.4l3.5,13.6
		l4.1-13.7l12.4-41.2H409l-22.5,71.2h-12.3l-11.2-42.6l-2.9-12.2l-14.4,54.8H332.7z"/>
	<path class="st0" d="M474.1,754.7v-13.8h13.6v13.8H474.1z"/>
	<path class="st0" d="M560.3,782v-98.5h10.9v9.4c2.6-3.6,5.5-6.4,8.8-8.2c3.3-1.8,7.2-2.7,11.9-2.7c6.1,0,11.5,1.6,16.1,4.7
		c4.7,3.1,8.2,7.5,10.6,13.2c2.4,5.7,3.6,11.9,3.6,18.7c0,7.3-1.3,13.8-3.9,19.7c-2.6,5.8-6.4,10.3-11.4,13.4
		c-5,3.1-10.2,4.6-15.7,4.6c-4,0-7.6-0.9-10.8-2.6c-3.2-1.7-5.8-3.8-7.9-6.4V782H560.3z M571.2,719.6c0,9.1,1.9,15.9,5.6,20.2
		c3.7,4.4,8.2,6.5,13.5,6.5c5.4,0,10-2.3,13.8-6.8c3.8-4.5,5.7-11.5,5.7-21c0-9.1-1.9-15.8-5.6-20.3c-3.7-4.5-8.2-6.8-13.4-6.8
		c-5.1,0-9.7,2.4-13.6,7.2C573.1,703.5,571.2,710.4,571.2,719.6z"/>
	<path class="st0" d="M688.1,754.7v-71.2H699v10.8c2.7-5,5.3-8.4,7.6-10c2.3-1.6,4.9-2.4,7.7-2.4c4,0,8.1,1.3,12.3,3.8l-4.3,11.2
		c-2.9-1.7-5.8-2.5-8.7-2.5c-2.6,0-4.9,0.8-7,2.4c-2.1,1.6-3.6,3.8-4.4,6.6c-1.3,4.3-2,9-2,14.1v37.3H688.1z"/>
	<path class="st0" d="M780.8,719.1c0-13.2,3.7-22.9,11-29.3c6.1-5.3,13.6-7.9,22.4-7.9c9.8,0,17.8,3.2,24,9.6
		c6.2,6.4,9.3,15.3,9.3,26.6c0,9.1-1.4,16.3-4.1,21.6c-2.8,5.2-6.8,9.3-12,12.2c-5.3,2.9-11,4.4-17.2,4.4c-10,0-18-3.2-24.2-9.6
		C783.9,740.3,780.8,731.2,780.8,719.1z M793.3,719.1c0,9.1,2,15.9,6,20.5c4,4.5,9,6.8,15,6.8c6,0,10.9-2.3,14.9-6.8
		c4-4.5,6-11.5,6-20.8c0-8.8-2-15.5-6-20c-4-4.5-9-6.8-14.9-6.8c-6,0-11,2.3-15,6.8C795.3,703.2,793.3,710,793.3,719.1z"/>
	<path class="st0" d="M911,760.6l11.7,1.6c0.5,3.7,1.9,6.4,4.1,8.1c3,2.3,7.1,3.4,12.4,3.4c5.6,0,10-1.1,13-3.4
		c3-2.2,5.1-5.4,6.2-9.4c0.6-2.4,0.9-7.6,0.9-15.5c-5.3,6.2-11.9,9.3-19.8,9.3c-9.8,0-17.4-3.5-22.8-10.6
		c-5.4-7.1-8.1-15.5-8.1-25.4c0-6.8,1.2-13,3.7-18.8c2.5-5.7,6-10.2,10.7-13.3c4.7-3.1,10.2-4.7,16.5-4.7c8.4,0,15.4,3.4,20.8,10.3
		v-8.8h10.9V745c0,11.1-1.1,18.9-3.4,23.6c-2.2,4.6-5.8,8.3-10.7,11c-4.9,2.7-10.9,4-18.1,4c-8.5,0-15.3-1.9-20.6-5.7
		C913.3,774,910.8,768.3,911,760.6z M921.1,717.9c0,9.3,1.8,16.2,5.6,20.5c3.7,4.3,8.4,6.5,14,6.5c5.5,0,10.2-2.2,13.9-6.4
		c3.8-4.3,5.6-11,5.6-20.1c0-8.7-1.9-15.3-5.8-19.8c-3.9-4.4-8.5-6.6-14-6.6c-5.4,0-9.9,2.2-13.7,6.5
		C923,702.8,921.1,709.3,921.1,717.9z"/>
	<path class="st0" d="M1040.9,754.7v-71.2h10.9v10.8c2.7-5,5.3-8.4,7.6-10c2.3-1.6,4.9-2.4,7.7-2.4c4,0,8.1,1.3,12.3,3.8l-4.3,11.2
		c-2.9-1.7-5.8-2.5-8.7-2.5c-2.6,0-4.9,0.8-7,2.4c-2.1,1.6-3.6,3.8-4.4,6.6c-1.3,4.3-2,9-2,14.1v37.3H1040.9z"/>
	<path class="st0" d="M1187.1,731.8l12.4,1.6c-2,7.3-5.6,12.9-10.9,16.9c-5.3,4-12.1,6-20.4,6c-10.4,0-18.6-3.2-24.7-9.6
		c-6.1-6.4-9.1-15.4-9.1-26.9c0-12,3.1-21.3,9.2-27.9c6.2-6.6,14.2-9.9,24-9.9c9.5,0,17.3,3.2,23.3,9.7c6,6.5,9.1,15.6,9.1,27.3
		c0,0.7-0.1,1.8-0.1,3.2h-53c0.4,7.8,2.7,13.8,6.6,17.9c4,4.2,8.9,6.2,14.9,6.2c4.4,0,8.2-1.2,11.3-3.5
		C1182.7,740.6,1185.2,736.9,1187.1,731.8z M1147.3,712.3h39.9c-0.5-6-2.1-10.5-4.6-13.5c-3.9-4.6-8.8-7-15-7
		c-5.6,0-10.2,1.9-14,5.6C1149.8,701.2,1147.7,706.1,1147.3,712.3z"/>
	<path class="st0" d="M1261.3,733.5l11.9-2c0.7,4.8,2.5,8.4,5.6,11c3,2.5,7.3,3.8,12.8,3.8c5.5,0,9.6-1.1,12.3-3.4
		c2.7-2.3,4-4.9,4-7.9c0-2.7-1.2-4.9-3.5-6.4c-1.7-1.1-5.8-2.4-12.3-4.1c-8.8-2.2-14.9-4.2-18.3-5.8c-3.4-1.6-6-3.9-7.7-6.7
		c-1.8-2.9-2.7-6.1-2.7-9.5c0-3.2,0.7-6.1,2.2-8.8c1.5-2.7,3.4-4.9,5.9-6.7c1.9-1.4,4.4-2.6,7.7-3.5c3.2-1,6.7-1.4,10.4-1.4
		c5.5,0,10.5,0.8,14.6,2.4c4.2,1.6,7.3,3.8,9.3,6.5c2,2.8,3.4,6.5,4.1,11.1l-11.9,1.6c-0.5-3.7-2.1-6.5-4.6-8.6
		c-2.5-2.1-6.1-3.1-10.8-3.1c-5.5,0-9.4,0.9-11.8,2.7c-2.4,1.8-3.5,4-3.5,6.4c0,1.6,0.5,3,1.5,4.2c1,1.3,2.5,2.4,4.6,3.2
		c1.2,0.4,4.7,1.5,10.6,3.1c8.5,2.3,14.4,4.1,17.8,5.6c3.4,1.5,6.1,3.6,8,6.4c1.9,2.8,2.9,6.2,2.9,10.3c0,4-1.2,7.8-3.5,11.4
		c-2.3,3.5-5.7,6.3-10.1,8.2c-4.4,1.9-9.4,2.9-15,2.9c-9.2,0-16.2-1.9-21.1-5.7C1265.7,746.7,1262.7,741,1261.3,733.5z"/>
	<path class="st0" d="M1381.4,733.5l11.9-2c0.6,4.8,2.5,8.4,5.6,11c3.1,2.5,7.3,3.8,12.8,3.8c5.5,0,9.6-1.1,12.3-3.4
		c2.7-2.3,4-4.9,4-7.9c0-2.7-1.2-4.9-3.6-6.4c-1.7-1.1-5.7-2.4-12.3-4.1c-8.8-2.2-14.9-4.2-18.3-5.8c-3.4-1.6-6-3.9-7.8-6.7
		c-1.8-2.9-2.6-6.1-2.6-9.5c0-3.2,0.7-6.1,2.2-8.8c1.5-2.7,3.4-4.9,5.9-6.7c1.9-1.4,4.4-2.6,7.6-3.5c3.3-1,6.7-1.4,10.4-1.4
		c5.6,0,10.5,0.8,14.7,2.4c4.2,1.6,7.3,3.8,9.3,6.5c2,2.8,3.4,6.5,4.2,11.1l-11.9,1.6c-0.5-3.7-2.1-6.5-4.6-8.6
		c-2.5-2.1-6.2-3.1-10.8-3.1c-5.5,0-9.4,0.9-11.8,2.7c-2.3,1.8-3.5,4-3.5,6.4c0,1.6,0.5,3,1.5,4.2c1,1.3,2.5,2.4,4.6,3.2
		c1.2,0.4,4.7,1.5,10.6,3.1c8.5,2.3,14.4,4.1,17.8,5.6c3.4,1.5,6.1,3.6,8,6.4c2,2.8,2.9,6.2,2.9,10.3c0,4-1.2,7.8-3.5,11.4
		c-2.3,3.5-5.7,6.3-10.1,8.2c-4.4,1.9-9.4,2.9-15,2.9c-9.2,0-16.3-1.9-21.1-5.7C1385.8,746.7,1382.7,741,1381.4,733.5z"/>
	<path class="st0" d="M1501.7,719.1c0-13.2,3.7-22.9,11-29.3c6.1-5.3,13.6-7.9,22.4-7.9c9.8,0,17.8,3.2,24,9.6
		c6.2,6.4,9.3,15.3,9.3,26.6c0,9.1-1.4,16.3-4.1,21.6c-2.7,5.2-6.7,9.3-12,12.2c-5.3,2.9-11,4.4-17.2,4.4c-10,0-18-3.2-24.2-9.6
		C1504.8,740.3,1501.7,731.2,1501.7,719.1z M1514.2,719.1c0,9.1,2,15.9,6,20.5c4,4.5,9,6.8,15,6.8c6,0,11-2.3,14.9-6.8
		c4-4.5,6-11.5,6-20.8c0-8.8-2-15.5-6-20c-4-4.5-9-6.8-14.9-6.8c-6,0-11,2.3-15,6.8C1516.2,703.2,1514.2,710,1514.2,719.1z"/>
	<path class="st0" d="M1636.9,754.7v-61.9h-10.7v-9.3h10.7V676c0-4.7,0.4-8.3,1.3-10.6c1.2-3.1,3.2-5.6,6.2-7.6
		c2.9-1.9,7-2.9,12.3-2.9c3.4,0,7.1,0.4,11.2,1.2l-1.8,10.5c-2.5-0.4-4.9-0.7-7.1-0.7c-3.7,0-6.3,0.8-7.8,2.3
		c-1.5,1.5-2.3,4.4-2.3,8.7v6.5h13.8v9.3H1649v61.9H1636.9z"/>
	<path class="st0" d="M1750.1,743.9l1.6,10.7c-3.4,0.7-6.4,1.1-9.1,1.1c-4.4,0-7.8-0.7-10.2-2.1c-2.4-1.4-4.1-3.2-5.1-5.5
		c-1-2.3-1.5-7-1.5-14.3v-41h-8.9v-9.3h8.9v-17.6l12.1-7.2v24.9h12.3v9.3h-12.3v41.7c0,3.5,0.2,5.7,0.7,6.6c0.4,1,1.2,1.8,2.1,2.3
		c1,0.6,2.3,0.9,4.1,0.9C1746.1,744.4,1747.9,744.2,1750.1,743.9z"/>
	<path class="st0" d="M1816.9,754.7v-13.8h13.6v13.8H1816.9z"/>
	<path class="st0" d="M1949.4,728.7l11.9,1.6c-1.3,8.1-4.6,14.5-9.9,19.2c-5.3,4.6-11.8,6.9-19.6,6.9c-9.7,0-17.5-3.2-23.4-9.5
		c-5.9-6.4-8.8-15.5-8.8-27.4c0-7.7,1.3-14.4,3.8-20.2c2.5-5.7,6.4-10.1,11.6-12.9c5.2-2.9,10.8-4.3,16.9-4.3c7.7,0,14,2,18.9,5.9
		c4.9,3.9,8,9.6,9.4,16.8l-11.7,1.6c-1.1-4.8-3.1-8.4-5.9-10.8c-2.8-2.4-6.2-3.6-10.2-3.6c-6,0-10.9,2.2-14.7,6.5
		c-3.8,4.3-5.6,11.2-5.6,20.6c0,9.6,1.8,16.5,5.4,20.8c3.6,4.3,8.3,6.5,14.2,6.5c4.7,0,8.6-1.5,11.7-4.3
		C1946.6,739.1,1948.5,734.7,1949.4,728.7z"/>
	<path class="st0" d="M2018.7,719.1c0-13.2,3.7-22.9,11-29.3c6.1-5.3,13.6-7.9,22.4-7.9c9.8,0,17.8,3.2,24,9.6
		c6.2,6.4,9.3,15.3,9.3,26.6c0,9.1-1.4,16.3-4.1,21.6c-2.7,5.2-6.7,9.3-12,12.2c-5.3,2.9-11,4.4-17.2,4.4c-10,0-18.1-3.2-24.2-9.6
		C2021.8,740.3,2018.7,731.2,2018.7,719.1z M2031.1,719.1c0,9.1,2,15.9,6,20.5c3.9,4.5,8.9,6.8,15,6.8c6,0,10.9-2.3,14.9-6.8
		c4-4.5,5.9-11.5,5.9-20.8c0-8.8-2-15.5-6-20c-4-4.5-9-6.8-14.9-6.8c-6,0-11,2.3-15,6.8C2033.1,703.2,2031.1,710,2031.1,719.1z"/>
	<path class="st0" d="M2151,754.7v-71.2h10.7v10.1c2.2-3.5,5.2-6.3,8.9-8.4c3.7-2.1,7.9-3.2,12.7-3.2c5.3,0,9.6,1.1,13,3.3
		c3.4,2.2,5.8,5.3,7.1,9.2c5.7-8.3,13-12.5,22.1-12.5c7.1,0,12.5,2,16.3,5.9c3.8,3.9,5.7,9.9,5.7,18.1v48.8h-12.1v-44.8
		c0-4.8-0.4-8.3-1.2-10.4c-0.8-2.1-2.2-3.8-4.3-5.1c-2.1-1.3-4.5-2-7.2-2c-5,0-9.2,1.7-12.5,5c-3.3,3.3-5,8.7-5,16v41.3h-12.1v-46.2
		c0-5.4-1-9.4-3-12.1c-2-2.7-5.2-4-9.6-4c-3.4,0-6.5,0.9-9.4,2.7c-2.9,1.8-5,4.4-6.2,7.8c-1.3,3.4-1.9,8.4-1.9,14.9v36.9H2151z"/>
</g>
</svg>
