<svg xmlns="http://www.w3.org/2000/svg" viewBox="0 0 393.96 393.61"><defs><style>.cls-1{fill:#fff;}</style></defs><g id="Layer_2" data-name="Layer 2"><g id="Layer_1-2" data-name="Layer 1"><polygon class="cls-1" points="209.65 0 167.73 24.21 167.73 72.62 209.64 48.42 209.65 0"/><polygon class="cls-1" points="125.81 96.82 167.71 72.63 167.71 121.04 209.63 145.23 167.71 169.45 167.71 217.86 125.78 242.08 83.86 217.86 125.78 193.64 125.81 193.64 125.81 145.26 125.78 145.23 125.81 145.23 125.78 145.23 83.89 121.04 83.86 121.01 41.93 145.23 41.93 96.82 83.86 72.63 83.89 72.63 125.78 96.82 125.81 96.82"/><polygon class="cls-1" points="41.93 193.64 83.86 217.86 41.93 242.08 0 217.86 41.93 193.64"/><polygon class="cls-1" points="293.49 96.82 293.49 145.23 251.56 169.45 209.63 145.23 251.56 121.04 251.56 72.63 293.49 96.82"/><path class="cls-1" d="M393.55,314.38a1.43,1.43,0,0,0-1-.41H337.74V280.4a5.45,5.45,0,0,1,5.32-5.47H380a1.37,1.37,0,0,0,1-.39l12.62-21.39c.38-.7.5-1,.29-1.51a1.37,1.37,0,0,0-1.29-.87H336.76c-12.57,0-23.18,10-23.18,21.75V314H292.79V208.61a1.38,1.38,0,0,0-.85-1.28c-.53-.2-.82-.07-1.51.31l-21.22,12.51a1.47,1.47,0,0,0-.39,1V314H248V272.3c0-11.67-10.53-21.56-23-21.56h-56a1.4,1.4,0,0,0-1.37,1.35c0,8.11,0,50.46,0,61.87l-42.21,0a1.35,1.35,0,0,0-1,.41L112,335.53c-.38.71-.5,1-.29,1.52a1.35,1.35,0,0,0,1.27.84H257.31a20.89,20.89,0,0,0,16-8,20.92,20.92,0,0,0,16,8H392.55a1.39,1.39,0,0,0,1.4-1.35V315.31a1.36,1.36,0,0,0-.42-.94ZM224.13,314h-27a5.41,5.41,0,0,1-5.4-5.29V274.93h27.14a5.39,5.39,0,0,1,5.28,5.4V314Z"/><path class="cls-1" d="M328.1,354.08H303a.5.5,0,0,0-.57.57V392.7a.51.51,0,0,0,.57.57H328.1a.51.51,0,0,0,.59-.57v-6.17a.53.53,0,0,0-.59-.59H311.22c-.24,0-.35-.11-.35-.34v-8.14a.31.31,0,0,1,.35-.34h14.06a.5.5,0,0,0,.57-.57v-6.11a.5.5,0,0,0-.57-.57H311.22a.3.3,0,0,1-.35-.35v-7.78a.31.31,0,0,1,.35-.35H328.1a.52.52,0,0,0,.59-.59v-6.16c0-.39-.2-.57-.59-.57Z"/><path class="cls-1" d="M346.43,386.75h-1.21a2.39,2.39,0,0,1-1.84-.6,2.87,2.87,0,0,1-.59-2V354.66c0-.39-.17-.59-.56-.59H335.3a.52.52,0,0,0-.59.59v30.07c0,3.11.67,5.38,2,6.77s3.54,2.11,6.66,2.11h3.06c.39,0,.57-.2.57-.59v-5.7c0-.39-.18-.59-.57-.59Z"/><path class="cls-1" d="M384,364.8a12.64,12.64,0,0,0-5.08.91,11,11,0,0,0-3.69,2.6h-.06c-1.66-2.33-4.16-3.5-7.48-3.5a9.53,9.53,0,0,0-4.48.91,8,8,0,0,0-2.74,2.23h-.06v-2c0-.39-.18-.59-.57-.59h-6.93c-.39,0-.56.2-.56.59v26.74c0,.38.17.57.56.57h6.93a.5.5,0,0,0,.57-.57v-16a5.53,5.53,0,0,1,1.16-3.69,4,4,0,0,1,3.23-1.38,3.86,3.86,0,0,1,3.25,1.38,5.89,5.89,0,0,1,1.07,3.69v16a.5.5,0,0,0,.57.57h6.91a.5.5,0,0,0,.57-.57v-16a5.68,5.68,0,0,1,1.13-3.69,3.88,3.88,0,0,1,3.2-1.38,4,4,0,0,1,3.3,1.38,5.89,5.89,0,0,1,1.09,3.69v16a.5.5,0,0,0,.57.57h6.91a.5.5,0,0,0,.57-.57V375.16a10.85,10.85,0,0,0-2.53-7.47c-1.69-1.93-4.17-2.88-7.43-2.88Z"/></g></g></svg>