<svg version="1.1" id="Layer_1" xmlns="http://www.w3.org/2000/svg" xmlns:xlink="http://www.w3.org/1999/xlink" x="0px" y="0px"
	 width="100%" viewBox="0 0 200 200" enable-background="new 0 0 200 200" xml:space="preserve">
<path fill="#FEFFFF" opacity="1.000000" stroke="none" 
	d="
M117.000000,201.000000 
	C78.024071,201.000000 39.548149,201.000000 1.036112,201.000000 
	C1.036112,134.399109 1.036112,67.798203 1.036112,1.098643 
	C67.559090,1.098643 134.118378,1.098643 200.838837,1.098643 
	C200.838837,67.666351 200.838837,134.333145 200.838837,201.000000 
	C173.131821,201.000000 145.315903,201.000000 117.000000,201.000000 
M90.003281,104.003044 
	C90.003281,104.003044 90.010185,103.973526 90.475731,104.543251 
	C92.314285,104.401802 94.152832,104.260353 96.487724,103.735542 
	C97.288109,103.074310 98.088493,102.413078 99.254311,102.333443 
	C100.118393,102.565231 100.982468,102.797020 102.072937,103.549232 
	C102.365822,103.783737 102.658707,104.018250 103.067993,104.803665 
	C103.723114,104.562828 104.378235,104.321991 105.009369,104.007683 
	C105.009369,104.007683 105.082695,104.032104 105.747734,103.914841 
	C106.481606,100.927811 107.215477,97.940788 107.982956,95.000351 
	C107.982956,95.000351 107.968086,94.948853 108.543816,95.015015 
	C108.735046,94.987671 108.926270,94.960335 109.545731,94.961227 
	C109.545731,94.961227 109.931374,95.149513 109.972954,96.011131 
	C110.629677,98.682014 111.286400,101.352905 112.532967,104.213165 
	C112.731941,104.268394 112.930916,104.323616 113.601082,104.748322 
	C114.754730,103.141060 115.908371,101.533798 117.373657,100.556267 
	C118.325371,101.674759 119.085953,103.086777 120.265739,103.855019 
	C123.418839,105.908218 130.090973,105.054092 130.319305,102.555214 
	C130.739548,97.955933 130.496460,93.287216 130.325134,88.655022 
	C130.305984,88.137466 128.962112,87.668907 128.232590,87.177628 
	C128.287140,87.629013 128.341690,88.080406 128.396240,88.531792 
	C126.502510,89.413757 124.520233,90.148521 122.740173,91.219437 
	C120.990448,92.272102 119.446014,93.666023 117.098419,94.952957 
	C116.146858,94.174522 115.074028,93.504219 114.265907,92.597885 
	C111.576881,89.582085 106.331070,89.117332 102.456917,92.017273 
	C102.244965,92.334656 102.033020,92.652039 101.030952,92.995850 
	C99.976456,93.018837 98.921967,93.041824 97.427299,92.943222 
	C97.124763,92.805298 96.944084,92.572716 96.870827,91.555046 
	C95.901299,91.409309 94.931778,91.263580 93.337288,91.234962 
	C92.915115,91.227364 92.492935,91.219765 91.712700,90.657188 
	C90.558739,91.528778 89.404778,92.400360 88.024696,93.017502 
	C88.024696,93.017502 88.271240,93.252281 87.380432,93.108742 
	C86.481926,93.121513 85.583427,93.134277 84.105858,92.773933 
	C80.642067,90.323212 76.985703,90.684868 75.102898,94.143234 
	C73.966789,96.230057 74.131332,100.198059 75.439774,102.179405 
	C77.635307,105.504036 81.353004,105.277382 85.593834,102.914696 
	C86.558334,102.874069 87.522842,102.833435 88.811958,102.924446 
	C88.811958,102.924446 89.002769,103.218224 89.221703,103.615654 
	C89.436325,103.856857 89.705070,103.979446 90.003281,104.003044 
M154.060944,99.824753 
	C153.597321,105.763115 157.963852,103.683388 161.670273,103.985268 
	C163.763290,104.139709 165.856293,104.294151 168.714935,104.449387 
	C169.479065,104.416832 170.243195,104.384277 171.247559,104.594017 
	C171.499786,104.436424 171.751999,104.278831 172.531830,103.730545 
	C173.642990,101.514610 175.731537,99.264183 175.654800,97.090179 
	C175.510513,93.001495 171.931046,91.733849 167.367004,91.030281 
	C164.818573,91.063072 162.270142,91.095863 159.048584,90.882248 
	C158.531982,90.518578 157.949646,90.219757 157.513077,89.777145 
	C156.712982,88.966003 155.998917,88.070000 155.248978,87.209381 
	C154.535797,88.401474 153.822617,89.593567 153.208099,91.289566 
	C153.449448,91.525696 153.690796,91.761833 154.058746,92.823296 
	C154.012466,94.211395 153.966187,95.599495 153.176514,96.990150 
	C152.440720,95.971428 151.704926,94.952713 151.033981,93.132828 
	C148.823090,91.022575 142.123184,90.152847 140.589890,92.188950 
	C139.587555,93.519943 139.281311,95.733139 139.437286,97.482155 
	C139.608276,99.399330 140.669067,101.237137 141.783829,104.338432 
	C147.205597,106.208153 149.619843,105.405228 151.772690,99.709236 
	C152.488586,99.476585 153.204498,99.243927 154.060944,99.824753 
M20.009346,93.729057 
	C20.272570,96.154884 19.925224,98.940033 21.053288,100.856911 
	C21.628420,101.834206 26.232347,101.994881 26.636452,101.244186 
	C28.219276,98.303810 28.854279,94.853210 29.979576,91.135887 
	C25.731792,91.908836 22.838951,92.435226 19.325745,92.370865 
	C19.465975,91.557243 19.606205,90.743629 20.412502,90.061340 
	C22.185032,89.817299 24.269148,90.062096 25.640181,89.188179 
	C26.943893,88.357193 28.327538,86.264877 28.174574,84.894775 
	C27.993193,83.270096 26.505058,81.207756 25.023674,80.489952 
	C23.759136,79.877220 21.005915,80.299652 20.134256,81.314583 
	C17.960630,83.845490 16.898666,86.984718 19.101221,90.354790 
	C16.049210,91.750351 12.743433,92.782639 10.037184,94.673149 
	C8.322080,95.871277 6.500360,98.396942 6.591325,100.234940 
	C6.664941,101.722412 9.641770,104.310715 11.115313,104.169060 
	C12.953238,103.992363 14.941713,101.762497 16.149330,99.943810 
	C16.931040,98.766541 16.376612,96.733696 16.519472,95.092812 
	C16.709389,92.911400 17.466408,91.497345 20.009346,93.729057 
M191.638214,99.084297 
	C191.447845,90.830956 186.439316,90.633240 177.955688,92.460831 
	C177.955688,97.214958 177.877060,102.007423 178.028625,106.792595 
	C178.055710,107.647598 179.035797,108.472420 179.575851,109.311180 
	C180.271896,108.599289 181.194885,107.995094 181.598511,107.144455 
	C181.982468,106.335266 181.823776,105.268585 181.920578,104.113396 
	C186.267212,104.856667 189.832169,104.354111 191.638214,99.084297 
M60.051327,102.379517 
	C63.423351,105.877190 69.697533,105.497719 68.958878,102.509872 
	C68.074760,98.933662 71.097267,99.369125 71.657127,97.954605 
	C70.064743,92.305504 67.120323,90.328445 62.779663,91.763695 
	C58.485687,93.183502 57.182045,97.106194 60.051327,102.379517 
M44.968994,96.248192 
	C47.163712,97.976440 49.358429,99.704681 51.305424,101.237862 
	C49.898365,101.552414 47.405197,102.109779 44.320595,102.799362 
	C49.110790,105.364403 54.819305,105.174179 55.704430,102.589676 
	C58.270786,95.096077 50.603893,98.079735 47.687527,95.650024 
	C49.547905,95.005737 50.840534,94.442337 52.190929,94.123993 
	C53.460964,93.824600 54.791965,93.783798 56.757908,93.550789 
	C51.735317,89.509796 46.807667,90.670021 44.968994,96.248192 
M31.092522,82.807289 
	C30.954880,84.821671 30.817238,86.836052 30.636389,89.482750 
	C34.571468,87.262573 40.612934,89.709694 40.894981,83.184967 
	C40.968826,81.476624 39.276600,78.792603 37.711582,78.098396 
	C34.367332,76.614975 32.109653,78.627411 31.092522,82.807289 
z"/>
<path fill="#8BDDC4" opacity="1.000000" stroke="none" 
	d="
M117.811508,94.910202 
	C119.446014,93.666023 120.990448,92.272102 122.740173,91.219437 
	C124.520233,90.148521 126.502510,89.413757 128.396240,88.531792 
	C128.341690,88.080406 128.287140,87.629013 128.232590,87.177628 
	C128.962112,87.668907 130.305984,88.137466 130.325134,88.655022 
	C130.496460,93.287216 130.739548,97.955933 130.319305,102.555214 
	C130.090973,105.054092 123.418839,105.908218 120.265739,103.855019 
	C119.085953,103.086777 118.325371,101.674759 117.222900,99.876511 
	C117.318596,97.767906 117.565056,96.339058 117.811508,94.910202 
M126.800026,99.189445 
	C126.061806,97.779030 125.611183,95.988365 124.463020,95.119942 
	C123.896126,94.691154 121.651505,95.647865 120.901009,96.573563 
	C120.358284,97.242973 120.857796,99.885803 121.182358,99.940895 
	C122.881485,100.229301 124.673149,99.972588 126.800026,99.189445 
z"/>
<path fill="#275176" opacity="1.000000" stroke="none" 
	d="
M191.511185,99.436646 
	C189.832169,104.354111 186.267212,104.856667 181.920578,104.113396 
	C181.823776,105.268585 181.982468,106.335266 181.598511,107.144455 
	C181.194885,107.995094 180.271896,108.599289 179.575851,109.311180 
	C179.035797,108.472420 178.055710,107.647598 178.028625,106.792595 
	C177.877060,102.007423 177.955688,97.214958 177.955688,92.460831 
	C186.439316,90.633240 191.447845,90.830956 191.511185,99.436646 
M182.394592,100.098915 
	C184.240189,100.069687 186.128845,100.236084 187.895340,99.847366 
	C188.251740,99.768951 188.685532,97.085190 188.130814,96.488708 
	C187.206757,95.495102 184.709656,94.393135 184.296021,94.795982 
	C183.137421,95.924316 182.705429,97.798729 182.394592,100.098915 
z"/>
<path fill="#2A547A" opacity="1.000000" stroke="none" 
	d="
M59.727005,102.152313 
	C57.182045,97.106194 58.485687,93.183502 62.779663,91.763695 
	C67.120323,90.328445 70.064743,92.305504 71.657127,97.954605 
	C71.097267,99.369125 68.074760,98.933662 68.958878,102.509872 
	C69.697533,105.497719 63.423351,105.877190 59.727005,102.152313 
z"/>
<path fill="#31597B" opacity="1.000000" stroke="none" 
	d="
M151.269455,99.995728 
	C149.619843,105.405228 147.205597,106.208153 141.783829,104.338432 
	C140.669067,101.237137 139.608276,99.399330 139.437286,97.482155 
	C139.281311,95.733139 139.587555,93.519943 140.589890,92.188950 
	C142.123184,90.152847 148.823090,91.022575 150.576111,93.634209 
	C147.789154,94.374939 145.460052,94.614288 143.664017,94.798859 
	C146.332962,96.622581 148.801208,98.309158 151.269455,99.995728 
z"/>
<path fill="#2A547A" opacity="1.000000" stroke="none" 
	d="
M168.321640,91.146309 
	C171.931046,91.733849 175.510513,93.001495 175.654800,97.090179 
	C175.731537,99.264183 173.642990,101.514610 172.003326,103.916534 
	C171.318985,104.185585 171.163162,104.268654 171.007324,104.351723 
	C170.243195,104.384277 169.479065,104.416832 168.000275,104.276260 
	C160.788071,100.009544 161.187119,95.019012 168.321640,91.146309 
z"/>
<path fill="#37AEDB" opacity="1.000000" stroke="none" 
	d="
M19.746435,89.930008 
	C19.606205,90.743629 19.465975,91.557243 19.662312,92.685310 
	C19.998877,92.999756 19.961721,92.946579 19.961721,92.946579 
	C17.466408,91.497345 16.709389,92.911400 16.519472,95.092812 
	C16.376612,96.733696 16.931040,98.766541 16.149330,99.943810 
	C14.941713,101.762497 12.953238,103.992363 11.115313,104.169060 
	C9.641770,104.310715 6.664941,101.722412 6.591325,100.234940 
	C6.500360,98.396942 8.322080,95.871277 10.037184,94.673149 
	C12.743433,92.782639 16.049210,91.750351 19.416086,90.163033 
	C19.730951,89.971275 19.746435,89.930008 19.746435,89.930008 
z"/>
<path fill="#275176" opacity="1.000000" stroke="none" 
	d="
M44.939308,95.894180 
	C46.807667,90.670021 51.735317,89.509796 56.757908,93.550789 
	C54.791965,93.783798 53.460964,93.824600 52.190929,94.123993 
	C50.840534,94.442337 49.547905,95.005737 47.687527,95.650024 
	C50.603893,98.079735 58.270786,95.096077 55.704430,102.589676 
	C54.819305,105.174179 49.110790,105.364403 44.320595,102.799362 
	C47.405197,102.109779 49.898365,101.552414 51.305424,101.237862 
	C49.358429,99.704681 47.163712,97.976440 44.939308,95.894180 
z"/>
<path fill="#84DFC3" opacity="1.000000" stroke="none" 
	d="
M31.115879,82.412567 
	C32.109653,78.627411 34.367332,76.614975 37.711582,78.098396 
	C39.276600,78.792603 40.968826,81.476624 40.894981,83.184967 
	C40.612934,89.709694 34.571468,87.262573 30.636389,89.482750 
	C30.817238,86.836052 30.954880,84.821671 31.115879,82.412567 
z"/>
<path fill="#2A547A" opacity="1.000000" stroke="none" 
	d="
M98.888885,101.751846 
	C98.088493,102.413078 97.288109,103.074310 95.809013,103.933090 
	C93.423599,104.078270 91.716888,104.025894 90.010185,103.973526 
	C90.010185,103.973526 90.003281,104.003044 89.915207,103.784744 
	C89.613586,103.305405 89.338799,103.189323 89.002769,103.218224 
	C89.002769,103.218224 88.811958,102.924446 88.477486,102.500916 
	C88.185753,99.135681 88.228500,96.193977 88.271240,93.252281 
	C88.271240,93.252281 88.024696,93.017502 88.434303,93.042542 
	C89.919525,92.449112 90.995140,91.830635 92.070763,91.212158 
	C92.492935,91.219765 92.915115,91.227364 93.893333,91.379974 
	C95.261337,91.765144 96.073296,92.005310 96.885254,92.245476 
	C96.944084,92.572716 97.124763,92.805298 97.782608,93.334244 
	C98.388245,96.400787 98.638565,99.076324 98.888885,101.751846 
M96.069862,99.907822 
	C95.684921,98.253677 95.617699,96.394218 94.750244,95.051888 
	C94.427635,94.552689 91.597321,94.792206 91.042824,95.537392 
	C90.267189,96.579750 90.011185,99.467148 90.482513,99.708183 
	C91.953117,100.460251 93.870331,100.338997 96.069862,99.907822 
z"/>
<path fill="#32ADD8" opacity="1.000000" stroke="none" 
	d="
M20.079468,89.995674 
	C19.746435,89.930008 19.730951,89.971275 19.755337,89.979744 
	C16.898666,86.984718 17.960630,83.845490 20.134256,81.314583 
	C21.005915,80.299652 23.759136,79.877220 25.023674,80.489952 
	C26.505058,81.207756 27.993193,83.270096 28.174574,84.894775 
	C28.327538,86.264877 26.943893,88.357193 25.640181,89.188179 
	C24.269148,90.062096 22.185032,89.817299 20.079468,89.995674 
z"/>
<path fill="#31597B" opacity="1.000000" stroke="none" 
	d="
M84.631371,102.833740 
	C81.353004,105.277382 77.635307,105.504036 75.439774,102.179405 
	C74.131332,100.198059 73.966789,96.230057 75.102898,94.143234 
	C76.985703,90.684868 80.642067,90.323212 84.354805,93.307144 
	C83.682556,94.193611 82.626762,95.027931 81.864105,94.814545 
	C78.990852,94.010635 77.060417,94.843613 76.885376,97.792206 
	C76.698761,100.936035 78.818817,101.469772 81.601242,101.189133 
	C82.546379,101.093811 83.617706,102.249634 84.631371,102.833740 
z"/>
<path fill="#84DFC3" opacity="1.000000" stroke="none" 
	d="
M19.972492,92.980690 
	C22.838951,92.435226 25.731792,91.908836 29.979576,91.135887 
	C28.854279,94.853210 28.219276,98.303810 26.636452,101.244186 
	C26.232347,101.994881 21.628420,101.834206 21.053288,100.856911 
	C19.925224,98.940033 20.272570,96.154884 19.985535,93.337814 
	C19.961721,92.946579 19.998877,92.999756 19.972492,92.980690 
z"/>
<path fill="#41ACD2" opacity="1.000000" stroke="none" 
	d="
M109.931374,95.149513 
	C109.931374,95.149513 109.545731,94.961227 109.217834,94.781555 
	C108.582664,94.717545 108.275375,94.833199 107.968086,94.948853 
	C107.968086,94.948853 107.982956,95.000351 107.584808,94.994568 
	C106.485336,98.003220 105.784012,101.017662 105.082695,104.032104 
	C105.082695,104.032104 105.009369,104.007683 104.673035,104.057892 
	C103.875000,104.156319 103.413292,104.204544 102.951591,104.252762 
	C102.658707,104.018250 102.365822,103.783737 102.026970,102.836067 
	C101.927696,99.071739 101.874390,96.020584 101.821075,92.969421 
	C102.033020,92.652039 102.244965,92.334656 103.148499,91.899727 
	C113.740463,92.107368 115.927353,95.072723 113.129890,104.378845 
	C112.930916,104.323616 112.731941,104.268394 112.216202,103.689247 
	C111.243416,100.493393 110.587395,97.821449 109.931374,95.149513 
z"/>
<path fill="#2A547A" opacity="1.000000" stroke="none" 
	d="
M153.109436,90.785660 
	C153.822617,89.593567 154.535797,88.401474 155.248978,87.209381 
	C155.998917,88.070000 156.712982,88.966003 157.513077,89.777145 
	C157.949646,90.219757 158.531982,90.518578 159.658356,91.272263 
	C160.077682,92.496437 160.081955,93.452560 159.653046,94.137375 
	C158.935913,95.282341 157.113785,96.379219 157.248535,97.270866 
	C157.481842,98.814476 158.877777,100.172714 159.742294,101.634575 
	C160.182251,102.378510 160.527008,103.178764 160.914795,103.953552 
	C157.963852,103.683388 153.597321,105.763115 154.080582,99.084694 
	C154.040115,97.892288 153.980011,97.439941 153.919907,96.987595 
	C153.966187,95.599495 154.012466,94.211395 154.035049,92.126541 
	C153.710709,91.215073 153.410080,91.000366 153.109436,90.785660 
z"/>
<path fill="#E0EDF4" opacity="1.000000" stroke="none" 
	d="
M161.292542,103.969406 
	C160.527008,103.178764 160.182251,102.378510 159.742294,101.634575 
	C158.877777,100.172714 157.481842,98.814476 157.248535,97.270866 
	C157.113785,96.379219 158.935913,95.282341 159.653046,94.137375 
	C160.081955,93.452560 160.077682,92.496437 159.994919,91.395462 
	C162.270142,91.095863 164.818573,91.063072 167.844330,91.088295 
	C161.187119,95.019012 160.788071,100.009544 167.617462,104.275864 
	C165.856293,104.294151 163.763290,104.139709 161.292542,103.969406 
z"/>
<path fill="#E5F1F6" opacity="1.000000" stroke="none" 
	d="
M85.112602,102.874222 
	C83.617706,102.249634 82.546379,101.093811 81.601242,101.189133 
	C78.818817,101.469772 76.698761,100.936035 76.885376,97.792206 
	C77.060417,94.843613 78.990852,94.010635 81.864105,94.814545 
	C82.626762,95.027931 83.682556,94.193611 84.644333,93.493698 
	C85.583427,93.134277 86.481926,93.121513 87.825836,93.180511 
	C88.228500,96.193977 88.185753,99.135681 88.315178,102.435089 
	C87.522842,102.833435 86.558334,102.874069 85.112602,102.874222 
z"/>
<path fill="#D0F5FB" opacity="1.000000" stroke="none" 
	d="
M113.365486,104.563583 
	C115.927353,95.072723 113.740463,92.107368 103.389328,91.737350 
	C106.331070,89.117332 111.576881,89.582085 114.265907,92.597885 
	C115.074028,93.504219 116.146858,94.174522 117.454971,94.931580 
	C117.565056,96.339058 117.318596,97.767906 117.067078,99.561646 
	C115.908371,101.533798 114.754730,103.141060 113.365486,104.563583 
z"/>
<path fill="#E5F1F6" opacity="1.000000" stroke="none" 
	d="
M101.426010,92.982635 
	C101.874390,96.020584 101.927696,99.071739 101.913773,102.575851 
	C100.982468,102.797020 100.118393,102.565231 99.071602,102.042648 
	C98.638565,99.076324 98.388245,96.400787 98.002701,93.395035 
	C98.921967,93.041824 99.976456,93.018837 101.426010,92.982635 
z"/>
<path fill="#E0EDF4" opacity="1.000000" stroke="none" 
	d="
M153.548218,96.988876 
	C153.980011,97.439941 154.040115,97.892288 154.010315,98.677956 
	C153.204498,99.243927 152.488586,99.476585 151.521072,99.852486 
	C148.801208,98.309158 146.332962,96.622581 143.664017,94.798859 
	C145.460052,94.614288 147.789154,94.374939 150.543701,94.034790 
	C151.704926,94.952713 152.440720,95.971428 153.548218,96.988876 
z"/>
<path fill="#D0F5FB" opacity="1.000000" stroke="none" 
	d="
M105.415215,103.973473 
	C105.784012,101.017662 106.485336,98.003220 107.568001,94.971268 
	C107.215477,97.940788 106.481606,100.927811 105.415215,103.973473 
z"/>
<path fill="#D0F5FB" opacity="1.000000" stroke="none" 
	d="
M109.952164,95.580322 
	C110.587395,97.821449 111.243416,100.493393 111.921280,103.594559 
	C111.286400,101.352905 110.629677,98.682014 109.952164,95.580322 
z"/>
<path fill="#E5F1F6" opacity="1.000000" stroke="none" 
	d="
M91.891731,90.934677 
	C90.995140,91.830635 89.919525,92.449112 88.547363,93.169769 
	C89.404778,92.400360 90.558739,91.528778 91.891731,90.934677 
z"/>
<path fill="#E5F1F6" opacity="1.000000" stroke="none" 
	d="
M96.878036,91.900261 
	C96.073296,92.005310 95.261337,91.765144 94.205811,91.321411 
	C94.931778,91.263580 95.901299,91.409309 96.878036,91.900261 
z"/>
<path fill="#E5F1F6" opacity="1.000000" stroke="none" 
	d="
M90.242958,104.258392 
	C91.716888,104.025894 93.423599,104.078270 95.560844,104.124771 
	C94.152832,104.260353 92.314285,104.401802 90.242958,104.258392 
z"/>
<path fill="#D0F5FB" opacity="1.000000" stroke="none" 
	d="
M103.009796,104.528214 
	C103.413292,104.204544 103.875000,104.156319 104.685028,104.094620 
	C104.378235,104.321991 103.723114,104.562828 103.009796,104.528214 
z"/>
<path fill="#E5F1F6" opacity="1.000000" stroke="none" 
	d="
M89.112236,103.416939 
	C89.338799,103.189323 89.613586,103.305405 89.927536,103.774933 
	C89.705070,103.979446 89.436325,103.856857 89.112236,103.416939 
z"/>
<path fill="#D0F5FB" opacity="1.000000" stroke="none" 
	d="
M108.255951,94.981934 
	C108.275375,94.833199 108.582664,94.717545 109.003723,94.767448 
	C108.926270,94.960335 108.735046,94.987671 108.255951,94.981934 
z"/>
<path fill="#E0EDF4" opacity="1.000000" stroke="none" 
	d="
M153.158768,91.037613 
	C153.410080,91.000366 153.710709,91.215073 153.971741,91.713875 
	C153.690796,91.761833 153.449448,91.525696 153.158768,91.037613 
z"/>
<path fill="#E0EDF4" opacity="1.000000" stroke="none" 
	d="
M171.127441,104.472870 
	C171.163162,104.268654 171.318985,104.185585 171.739532,104.111877 
	C171.751999,104.278831 171.499786,104.436424 171.127441,104.472870 
z"/>
<path fill="#EAFEF9" opacity="1.000000" stroke="none" 
	d="
M126.616333,99.547409 
	C124.673149,99.972588 122.881485,100.229301 121.182358,99.940895 
	C120.857796,99.885803 120.358284,97.242973 120.901009,96.573563 
	C121.651505,95.647865 123.896126,94.691154 124.463020,95.119942 
	C125.611183,95.988365 126.061806,97.779030 126.616333,99.547409 
z"/>
<path fill="#E5F1F6" opacity="1.000000" stroke="none" 
	d="
M182.190674,99.738846 
	C182.705429,97.798729 183.137421,95.924316 184.296021,94.795982 
	C184.709656,94.393135 187.206757,95.495102 188.130814,96.488708 
	C188.685532,97.085190 188.251740,99.768951 187.895340,99.847366 
	C186.128845,100.236084 184.240189,100.069687 182.190674,99.738846 
z"/>
<path fill="#E5F1F6" opacity="1.000000" stroke="none" 
	d="
M95.842133,100.232071 
	C93.870331,100.338997 91.953117,100.460251 90.482513,99.708183 
	C90.011185,99.467148 90.267189,96.579750 91.042824,95.537392 
	C91.597321,94.792206 94.427635,94.552689 94.750244,95.051888 
	C95.617699,96.394218 95.684921,98.253677 95.842133,100.232071 
z"/>
</svg>