<?xml version="1.0" encoding="UTF-8"?><svg id="Layer_1" xmlns="http://www.w3.org/2000/svg" viewBox="0 0 177.89 35.28"><defs><style>.cls-1{fill:#c10230;}.cls-2{fill:#707272;}.cls-3{fill:#f99d1c;}</style></defs><path class="cls-1" d="M52.44,26.5l5.33,5.47h13.21s-5.48-5.82-11.74-12.27l-6.81,6.81Z"/><path class="cls-1" d="M43.38,16.72l4.1-4.09,2.45-2.44c-.06-.06-.13-.13-.2-.2-8.76-8.44-15.06-7.59-21.51-1.13L5.04,32.03h14.19L36.24,15.07l2.75-2.75,4.4,4.4Z"/><path class="cls-3" d="M58.73,3.8l-16.95,16.81-2.8,2.8-4.4-4.4-4.1,4.1-2.45,2.44c.06,.06,.13,.13,.2,.2,8.8,8.8,15.06,7.59,21.51,1.13L72.92,3.8h-14.19Z"/><path class="cls-3" d="M25.52,9.23l-5.33-5.47H6.98s5.48,5.82,11.74,12.27l6.81-6.81Z"/><g><polygon class="cls-2" points="84.09 6.33 81.49 6.33 81.49 4.23 89.53 4.23 89.53 6.33 86.92 6.33 86.92 14.83 84.09 14.83 84.09 6.33"/><rect class="cls-2" x="132.98" y="20.52" width="1.43" height="11.38"/><path class="cls-2" d="M155.74,24.17h1.43v7.74h-1.43v-7.74Zm1.52-1.73h-1.61v-1.61h1.61v1.61Z"/><polygon class="cls-2" points="84.75 22.64 81.46 22.64 81.46 21.31 89.56 21.31 89.56 22.64 86.26 22.64 86.26 31.9 84.75 31.9 84.75 22.64"/><polygon class="cls-2" points="113.52 3.45 116.25 3.45 116.25 10.25 116.28 10.25 118.56 6.92 121.54 6.92 118.8 10.55 121.77 14.83 118.46 14.83 116.28 10.92 116.25 10.92 116.25 14.83 113.52 14.83 113.52 3.45"/><path class="cls-2" d="M138.02,28.04c0,.34,.05,.69,.14,1.03,.1,.35,.24,.66,.44,.93,.2,.28,.45,.5,.76,.68,.31,.17,.67,.26,1.09,.26s.77-.09,1.08-.26c.3-.17,.55-.4,.75-.68,.19-.28,.34-.59,.44-.93,.09-.35,.14-.69,.14-1.03,0-.37-.05-.73-.16-1.07-.11-.35-.27-.65-.47-.93-.21-.27-.46-.49-.76-.65-.3-.16-.64-.24-1.01-.24s-.72,.08-1.02,.24c-.3,.16-.55,.38-.76,.65-.21,.27-.37,.58-.48,.93-.11,.35-.17,.7-.17,1.07m-1.52,0c0-.59,.09-1.13,.28-1.63,.19-.5,.46-.92,.8-1.28,.34-.36,.76-.64,1.25-.84s1.03-.3,1.62-.3,1.12,.1,1.61,.3c.48,.2,.9,.48,1.24,.84,.34,.36,.61,.79,.8,1.28,.19,.5,.28,1.04,.28,1.63,0,.55-.1,1.08-.29,1.57-.19,.49-.46,.92-.81,1.29-.35,.37-.76,.66-1.24,.88-.48,.22-1.01,.32-1.59,.32s-1.12-.11-1.6-.32c-.48-.22-.9-.51-1.25-.88-.35-.37-.62-.8-.81-1.29-.19-.49-.29-1.01-.29-1.57"/><path class="cls-2" d="M149.45,30.75c.33,0,.64-.07,.92-.2,.28-.14,.52-.32,.71-.56,.2-.24,.35-.51,.46-.83,.11-.32,.17-.66,.17-1.03,0-.4-.05-.78-.14-1.15-.09-.36-.24-.68-.43-.95-.19-.27-.43-.49-.71-.65-.28-.16-.61-.24-.99-.24s-.68,.09-.94,.26c-.27,.18-.5,.4-.68,.68-.18,.28-.32,.59-.4,.93-.09,.34-.13,.68-.13,1.01,0,.37,.05,.71,.15,1.04,.1,.33,.24,.62,.43,.87,.19,.25,.41,.45,.68,.6,.27,.15,.57,.22,.9,.22m3.68,.82c0,1.18-.32,2.09-.96,2.73-.64,.65-1.65,.97-3.03,.97-.2,0-.4,0-.6-.02-.2-.02-.41-.04-.63-.08-.22-.04-.46-.09-.71-.16-.26-.07-.54-.16-.84-.27l.16-1.32c.28,.12,.53,.22,.75,.31,.23,.09,.44,.16,.66,.22,.21,.06,.43,.1,.65,.13,.22,.03,.46,.04,.73,.04,.76,0,1.35-.24,1.77-.72,.42-.47,.63-1.11,.63-1.93v-.76h-.03c-.3,.4-.68,.7-1.16,.9-.46,.2-.94,.3-1.44,.3-.56,0-1.05-.1-1.46-.31-.41-.21-.76-.49-1.03-.84-.27-.35-.48-.76-.61-1.22s-.2-.94-.2-1.44c0-.33,.03-.66,.1-.99,.06-.33,.16-.65,.29-.96,.13-.31,.28-.59,.47-.85,.19-.26,.41-.49,.67-.69,.26-.2,.55-.35,.87-.46,.32-.11,.68-.17,1.07-.17,.34,0,.65,.03,.91,.09,.27,.06,.51,.15,.72,.26,.21,.11,.39,.25,.54,.42,.15,.17,.28,.36,.38,.57h.03v-1.15h1.32v7.4Z"/><g><path class="cls-2" d="M128.18,10.13c0-.46-.11-.84-.35-1.16-.23-.33-.62-.49-1.17-.49-.5,0-.87,.16-1.11,.49-.24,.32-.38,.7-.41,1.16h3.04Zm-3.01,1.55c.08,.55,.32,.94,.72,1.17,.4,.23,.93,.35,1.61,.35,.37,0,.76-.05,1.17-.14,.41-.09,.82-.25,1.24-.47v1.93c-.45,.17-.92,.3-1.4,.38-.48,.08-.98,.12-1.5,.12-.65,0-1.26-.09-1.82-.28-.56-.19-1.05-.46-1.46-.81-.41-.36-.74-.79-.97-1.3-.24-.52-.35-1.1-.35-1.75s.11-1.23,.32-1.75c.21-.51,.51-.94,.88-1.3,.38-.35,.82-.62,1.34-.81,.52-.19,1.09-.28,1.7-.28,.73,0,1.35,.12,1.86,.36,.51,.24,.92,.57,1.23,.98,.32,.41,.55,.88,.69,1.41,.14,.54,.22,1.09,.22,1.68v.5h-5.47Z"/><path class="cls-2" d="M137.45,10.13c0-.46-.11-.84-.35-1.16-.23-.33-.62-.49-1.17-.49-.5,0-.87,.16-1.11,.49-.24,.32-.38,.7-.41,1.16h3.04Zm-3.01,1.55c.08,.55,.32,.94,.72,1.17,.4,.23,.93,.35,1.6,.35,.37,0,.76-.05,1.17-.14,.41-.09,.82-.25,1.24-.47v1.93c-.45,.17-.92,.3-1.4,.38-.48,.08-.98,.12-1.5,.12-.65,0-1.26-.09-1.82-.28-.56-.19-1.05-.46-1.46-.81-.41-.36-.74-.79-.97-1.3-.24-.52-.35-1.1-.35-1.75s.11-1.23,.32-1.75c.21-.51,.51-.94,.88-1.3,.38-.35,.82-.62,1.34-.81,.52-.19,1.09-.28,1.7-.28,.73,0,1.35,.12,1.86,.36,.51,.24,.92,.57,1.23,.98,.32,.41,.55,.88,.69,1.41,.14,.54,.22,1.09,.22,1.68v.5h-5.47Z"/><path class="cls-2" d="M141.33,6.92h2.49v1.46h.03c.13-.29,.3-.53,.5-.74,.2-.21,.42-.38,.67-.51,.25-.13,.52-.23,.81-.3,.29-.06,.59-.09,.9-.09,.54,0,1,.09,1.38,.26,.38,.18,.69,.41,.94,.7,.24,.29,.42,.63,.53,1.01,.11,.38,.17,.77,.17,1.18v4.94h-2.73v-3.82c0-.74-.12-1.26-.36-1.55-.23-.29-.53-.44-.9-.44-.57,0-.99,.2-1.28,.59-.28,.39-.42,1.02-.42,1.88v3.34h-2.73V6.92Z"/><path class="cls-2" d="M91.24,12.33c0,.13,.03,.25,.08,.36,.06,.11,.14,.2,.23,.27,.1,.07,.22,.13,.35,.17,.13,.04,.28,.06,.45,.06,.26,0,.49-.05,.7-.16,.21-.11,.38-.25,.53-.43,.15-.18,.26-.38,.34-.6,.08-.22,.12-.45,.12-.68-.17,0-.35-.02-.54-.03-.19,0-.4-.01-.6-.01-.46,0-.85,.08-1.18,.24-.32,.15-.48,.42-.48,.81m3,2.5c0-.21-.02-.42-.04-.63-.01-.21-.02-.41-.02-.62h-.03c-.16,.25-.32,.46-.5,.64-.17,.18-.36,.33-.57,.44-.21,.12-.43,.2-.66,.26-.24,.06-.5,.08-.78,.08-.39,0-.76-.05-1.12-.15-.36-.1-.67-.25-.94-.46-.27-.2-.49-.46-.66-.77-.16-.31-.24-.68-.24-1.11,0-.61,.14-1.09,.43-1.44,.29-.35,.64-.62,1.07-.81,.21-.09,.43-.17,.65-.23,.22-.06,.45-.1,.69-.13,.47-.06,.89-.09,1.25-.09,.22,0,.45,0,.68,.03,.23,.02,.43,.04,.6,.08,0-.27-.05-.49-.14-.66s-.23-.32-.39-.42c-.17-.1-.36-.18-.58-.22-.22-.04-.45-.06-.69-.06-.45,0-.88,.05-1.31,.14-.42,.09-.83,.24-1.21,.46l-.04-1.85c.49-.21,.99-.35,1.5-.44,.51-.08,1.06-.12,1.66-.12,.51,0,.98,.06,1.44,.17,.46,.12,.85,.3,1.2,.56,.34,.26,.62,.6,.82,1.02,.2,.42,.3,.93,.3,1.53v2.94c0,.32,.01,.63,.03,.94,.02,.31,.06,.62,.12,.93h-2.5Z"/><path class="cls-2" d="M98.34,6.92h2.49v1.46h.03c.13-.29,.3-.53,.5-.74,.2-.21,.42-.38,.67-.51,.25-.13,.52-.23,.81-.3,.29-.06,.59-.09,.9-.09,.56,0,1.06,.12,1.5,.37,.44,.25,.76,.63,.97,1.14,.16-.27,.35-.5,.55-.69,.21-.19,.43-.35,.67-.47,.24-.12,.49-.21,.76-.27,.27-.06,.54-.09,.82-.09,.57,0,1.04,.08,1.4,.24,.36,.16,.65,.38,.85,.68,.21,.29,.35,.65,.42,1.08,.08,.42,.11,.9,.11,1.44v4.66h-2.73v-4.25c0-.23-.02-.44-.06-.63-.04-.19-.11-.36-.2-.5-.09-.14-.2-.25-.34-.32-.14-.08-.3-.11-.5-.11-.49,0-.86,.2-1.14,.59-.27,.39-.41,1.02-.41,1.88v3.34h-2.73v-4.25c0-.23-.02-.44-.06-.63-.04-.19-.11-.36-.2-.5-.09-.14-.2-.25-.34-.32-.14-.08-.3-.11-.5-.11-.48,0-.86,.2-1.14,.59-.27,.39-.41,1.02-.41,1.88v3.34h-2.73V6.92Z"/><path class="cls-2" d="M94.82,27.29c0-.3-.04-.57-.13-.83-.08-.26-.21-.49-.37-.68-.16-.2-.36-.35-.6-.46-.24-.11-.51-.17-.82-.17-.36,0-.66,.07-.91,.2-.25,.13-.46,.3-.62,.51-.16,.21-.29,.44-.38,.69-.09,.25-.15,.5-.18,.75h4.01Zm.93,4.3c-.14,.05-.29,.1-.44,.16-.15,.06-.32,.11-.52,.16-.19,.05-.41,.09-.65,.13-.24,.04-.52,.05-.84,.05-.68,0-1.28-.1-1.78-.3-.51-.2-.92-.49-1.25-.85-.33-.37-.58-.81-.74-1.32-.16-.52-.24-1.09-.24-1.71,0-.57,.09-1.09,.26-1.57,.17-.48,.42-.89,.74-1.24,.32-.35,.7-.62,1.14-.81,.45-.19,.94-.29,1.49-.29,.64,0,1.18,.11,1.62,.33,.44,.22,.79,.53,1.05,.92,.26,.39,.45,.85,.57,1.39,.11,.53,.17,1.11,.17,1.73h-5.52c0,.38,.07,.73,.21,1.04,.14,.32,.32,.59,.56,.82,.23,.23,.5,.4,.81,.53,.31,.13,.63,.19,.97,.19,.24,0,.49-.03,.73-.08,.24-.05,.47-.12,.69-.2,.22-.08,.41-.16,.58-.25,.17-.09,.3-.17,.39-.25v1.43Z"/><path class="cls-2" d="M103.17,25.47c-.27-.11-.54-.2-.8-.25-.26-.06-.51-.08-.75-.08-.39,0-.75,.08-1.05,.24-.31,.16-.57,.38-.78,.65-.21,.27-.37,.58-.49,.93-.11,.35-.17,.7-.17,1.07,0,.34,.05,.69,.15,1.03,.09,.35,.25,.66,.46,.93,.21,.28,.47,.5,.8,.68,.33,.17,.72,.26,1.18,.26,.24,0,.5-.04,.78-.11,.28-.08,.53-.18,.75-.32l.1,1.28c-.3,.14-.6,.23-.92,.26-.32,.04-.61,.06-.87,.06-.58,0-1.12-.11-1.6-.32-.48-.22-.9-.51-1.24-.88-.35-.37-.62-.8-.81-1.29-.19-.49-.29-1.01-.29-1.57,0-.59,.09-1.13,.28-1.63,.19-.5,.46-.92,.8-1.28,.34-.36,.76-.64,1.24-.84,.48-.2,1.02-.3,1.62-.3,.3,0,.62,.03,.93,.09,.35,.06,.61,.13,.8,.21l-.13,1.18Z"/><path class="cls-2" d="M104.99,20.52h1.42v4.75h.03c.27-.42,.61-.74,1.03-.96,.42-.22,.91-.33,1.46-.33,1,0,1.73,.29,2.2,.88,.46,.58,.7,1.4,.7,2.44v4.6h-1.42v-4.01c0-.9-.12-1.58-.35-2.03-.23-.45-.66-.69-1.29-.73-.41,0-.76,.08-1.06,.23-.3,.16-.54,.38-.73,.66-.19,.28-.33,.62-.43,1.01-.09,.39-.14,.82-.14,1.29v3.58h-1.42v-11.38Z"/><path class="cls-2" d="M114.26,24.17h1.38v1.22h.03c.22-.45,.56-.8,1.02-1.04,.47-.25,.98-.37,1.52-.37,1,0,1.73,.29,2.2,.88,.46,.58,.7,1.39,.7,2.44v4.6h-1.42v-4.01c0-.9-.12-1.58-.35-2.03-.23-.45-.66-.69-1.29-.73-.41,0-.76,.08-1.06,.23-.3,.16-.54,.38-.73,.66-.19,.28-.33,.62-.43,1.01-.09,.39-.14,.82-.14,1.29v3.58h-1.42v-7.74Z"/><path class="cls-2" d="M124.53,28.04c0,.34,.05,.69,.14,1.03,.1,.35,.24,.66,.44,.93,.2,.28,.45,.5,.76,.68,.31,.17,.67,.26,1.09,.26s.77-.09,1.08-.26c.3-.17,.55-.4,.75-.68,.2-.28,.34-.59,.44-.93,.09-.35,.14-.69,.14-1.03,0-.37-.05-.73-.16-1.07-.11-.35-.27-.65-.47-.93-.21-.27-.46-.49-.76-.65-.3-.16-.64-.24-1.01-.24s-.72,.08-1.02,.24c-.3,.16-.56,.38-.76,.65-.21,.27-.37,.58-.48,.93-.11,.35-.17,.7-.17,1.07m-1.52,0c0-.59,.09-1.13,.29-1.63,.19-.5,.46-.92,.8-1.28,.34-.36,.76-.64,1.25-.84s1.03-.3,1.62-.3,1.12,.1,1.61,.3c.48,.2,.9,.48,1.24,.84,.34,.36,.61,.79,.8,1.28,.19,.5,.28,1.04,.28,1.63,0,.55-.1,1.08-.29,1.57-.19,.49-.46,.92-.81,1.29-.35,.37-.76,.66-1.24,.88-.48,.22-1.01,.32-1.59,.32s-1.12-.11-1.6-.32c-.48-.22-.9-.51-1.25-.88-.35-.37-.62-.8-.81-1.29-.19-.49-.29-1.01-.29-1.57"/></g><path class="cls-2" d="M164.78,27.29c0-.3-.04-.57-.13-.83-.08-.26-.21-.49-.37-.68-.16-.2-.36-.35-.6-.46-.24-.11-.51-.17-.82-.17-.36,0-.66,.07-.91,.2-.25,.13-.46,.3-.62,.51-.16,.21-.29,.44-.38,.69-.09,.25-.15,.5-.18,.75h4.01Zm.93,4.3c-.14,.05-.29,.1-.44,.16-.15,.06-.32,.11-.52,.16-.19,.05-.41,.09-.65,.13-.24,.04-.52,.05-.84,.05-.68,0-1.28-.1-1.78-.3-.51-.2-.92-.49-1.25-.85-.33-.37-.58-.81-.74-1.32-.16-.52-.24-1.09-.24-1.71,0-.57,.09-1.09,.26-1.57,.17-.48,.42-.89,.74-1.24,.32-.35,.7-.62,1.14-.81,.45-.19,.94-.29,1.49-.29,.64,0,1.18,.11,1.62,.33,.44,.22,.79,.53,1.05,.92,.26,.39,.45,.85,.57,1.39,.11,.53,.17,1.11,.17,1.73h-5.52c0,.38,.07,.73,.21,1.04,.14,.32,.33,.59,.56,.82,.23,.23,.5,.4,.81,.53,.31,.13,.63,.19,.97,.19,.24,0,.49-.03,.73-.08,.24-.05,.47-.12,.69-.2,.22-.08,.41-.16,.58-.25,.17-.09,.3-.17,.39-.25v1.43Z"/><path class="cls-2" d="M167.64,30.38c.14,.09,.3,.18,.46,.25,.16,.07,.32,.13,.49,.17,.16,.04,.31,.08,.46,.1,.15,.02,.27,.03,.38,.03,.16,0,.32-.02,.5-.05,.17-.04,.33-.1,.47-.18,.14-.09,.26-.2,.35-.34,.09-.14,.14-.32,.14-.54,0-.17-.05-.33-.14-.46-.1-.13-.22-.26-.38-.37-.16-.11-.33-.22-.54-.31-.2-.1-.41-.2-.61-.3-.21-.11-.41-.22-.61-.34-.2-.12-.38-.26-.54-.42-.16-.16-.28-.34-.38-.54-.1-.21-.15-.44-.15-.71,0-.4,.07-.75,.21-1.05,.14-.3,.33-.55,.57-.74,.25-.2,.53-.35,.87-.44,.33-.1,.69-.14,1.08-.14,.34,0,.65,.03,.93,.09s.56,.13,.84,.21l-.12,1.24c-.08-.05-.2-.1-.33-.14-.14-.05-.28-.09-.43-.13-.15-.04-.29-.07-.43-.09-.14-.02-.24-.03-.32-.03-.37,0-.69,.08-.96,.23-.27,.15-.41,.38-.41,.71,0,.2,.05,.37,.14,.51,.1,.14,.22,.26,.38,.37,.16,.1,.34,.21,.54,.3,.2,.09,.4,.19,.61,.29,.21,.1,.41,.21,.62,.32,.2,.12,.38,.26,.54,.42,.16,.16,.28,.36,.38,.58,.1,.23,.15,.49,.15,.81,0,.41-.08,.77-.23,1.08-.15,.31-.36,.56-.61,.75-.25,.2-.54,.34-.86,.44-.32,.1-.66,.14-1,.14-.36,0-.72-.03-1.09-.08-.36-.06-.71-.17-1.03-.34l.07-1.28Z"/></g><path class="cls-1" d="M52.47,26.4l5.32,5.45h13.17s-5.46-5.8-11.7-12.24l-6.79,6.79Z"/><path class="cls-1" d="M43.43,16.63l4.09-4.08,2.44-2.43c-.06-.06-.13-.13-.2-.2-8.74-8.41-15.01-7.57-21.46-1.12L5.2,31.91h14.15L36.31,14.99l2.74-2.74,4.38,4.38Z"/><path class="cls-3" d="M58.74,3.76l-16.9,16.76-2.79,2.79-4.38-4.38-4.09,4.08-2.44,2.43c.06,.06,.13,.13,.2,.2,8.77,8.77,15.01,7.57,21.46,1.12L72.9,3.76h-14.15Z"/><path class="cls-3" d="M25.63,9.17l-5.32-5.45H7.13s5.46,5.8,11.7,12.24l6.79-6.79Z"/></svg>