<svg width="320" height="32" viewBox="0 0 320 32" fill="none" xmlns="http://www.w3.org/2000/svg">
<g clip-path="url(#clip0_742_358)">
<path d="M177.527 31.3584H200.877V26.5562C195.991 30.7819 189.906 30.1641 183.92 30.1641H183.013V0.551882H175.921C177.344 3.00652 177.527 5.60119 177.527 8.85483V31.3584Z" fill="#CAAB79"/>
<path d="M316.887 5.88125L319.459 3.30306C316.179 0.749572 312.175 0 308.213 0C301.32 0 293.77 3.55017 291.322 11.3012C290.848 12.8004 290.606 14.3654 290.606 15.9552C290.606 17.5449 290.848 19.11 291.322 20.6091C293.77 28.3602 301.079 31.935 307.971 31.935C312.158 31.935 316.629 31.0125 320 28.1625V17.0177H312.774C314.223 19.4724 314.406 22.0753 314.406 25.3207V28.5249L313.956 28.8297C312.208 30.0076 310.244 30.6336 308.213 30.6336C301.253 30.6336 296.267 23.5991 296.267 15.9716C296.267 8.34413 301.245 1.30969 308.213 1.30969C311.601 1.30969 314.689 3.03947 316.878 5.88125" fill="#CAAB79"/>
<path d="M153.711 30.6336C146.877 30.6336 141.707 23.5991 141.707 15.9634C141.707 8.32765 146.593 1.30145 153.428 1.30145C160.262 1.30145 165.14 8.32765 165.14 15.9634C165.14 23.5991 160.537 30.6336 153.711 30.6336ZM169.985 11.3012C167.588 3.55017 160.179 0.107082 153.42 0.107082C146.66 0.107082 139.251 3.54193 136.846 11.3012C136.388 12.7921 136.146 14.3654 136.146 15.9552C136.146 17.5449 136.388 19.11 136.846 20.6091C139.243 28.3684 146.935 31.935 153.703 31.935C160.47 31.935 167.588 28.3602 169.985 20.6091C170.451 19.1182 170.684 17.5449 170.684 15.9552C170.684 14.3654 170.443 12.7921 169.985 11.3012Z" fill="#CAAB79"/>
<path d="M28.0617 0.551882L16.3326 17.5943L6.03522 0.551882H0L12.0371 20.4773V31.3584H17.523V18.8628L30.0512 0.551882H28.0617Z" fill="#CAAB79"/>
<path d="M255.111 0.551882H253.513C254.778 2.74294 255.061 5.04931 255.111 7.83343V31.3584H260.597V4.36564L279.918 31.3584H285.703V0.551882H280.209V29.5381L261.804 3.47603C260.214 1.30969 258.016 0.551882 255.61 0.551882H255.103H255.111Z" fill="#CAAB79"/>
<path d="M240.177 0.551882C241.6 3.00652 241.784 5.60119 241.784 8.85483V31.3584H247.269V0.551882H240.177Z" fill="#CAAB79"/>
<path d="M105.979 0.551882H98.8861C100.31 3.00652 100.493 5.60119 100.493 8.85483V31.3584H105.979V20.1725C105.979 18.3357 107.319 16.5729 109.683 16.5729H124.758V31.3667H130.244V0.551882H124.758V15.3456H105.979V0.551882Z" fill="#CAAB79"/>
<path d="M223.195 29.4886C221.955 29.9581 220.673 30.1641 219.366 30.1641H211.915V1.74625H219.357C220.664 1.74625 221.955 1.95218 223.187 2.42169C232.419 5.9142 232.377 25.9961 223.187 29.4804M222.937 0.551882H204.823C206.246 3.00652 206.43 5.60119 206.43 8.85483V31.3584H222.937C239.852 31.3584 239.852 0.560119 222.937 0.560119" fill="#CAAB79"/>
<path d="M30.7505 23.0637L38.8585 3.54193L46.3089 23.0637H30.7505ZM50.7958 18.7063C48.9477 14.003 47.0581 9.32434 45.2017 4.62098L43.5868 0.551882H35.7202C36.8273 4.67864 34.3217 10.2222 32.8899 13.83L25.9556 31.3502H27.5206C27.7537 30.7077 27.9868 30.0735 28.2365 29.431C28.5861 28.5084 29.044 27.66 29.6184 26.894C30.2427 26.0538 31.0335 25.4195 31.8993 24.9747C32.9981 24.4064 34.2884 24.2581 35.4705 24.2581H46.7751L49.5055 31.3584H55.7988C54.1255 27.1493 52.4607 22.9319 50.7958 18.7146" fill="#CAAB79"/>
<path d="M83.9437 18.4839C82.9031 17.4708 81.6045 16.6306 80.0645 15.9634C78.5328 15.288 76.8763 14.7196 75.1031 14.2336C73.33 13.7476 71.6735 13.2122 70.1418 12.6192C68.6018 12.0261 67.3198 11.3095 66.2792 10.4693C65.2387 9.63735 64.7059 8.52534 64.6809 7.10857C64.6643 6.30958 64.8141 5.54353 65.2553 4.89281C67.2449 1.96042 70.3832 1.34264 72.6558 1.30145C77.2092 1.22732 79.5567 4.32445 79.9397 4.82691C80.3226 5.32937 80.6223 5.79065 80.847 6.21897C80.847 6.21897 82.6617 4.66217 83.5275 3.90436C81.6878 2.18282 78.05 0.148267 72.739 0.148267C70.5663 0.148267 69.4758 0.247111 67.7443 0.617779C66.0129 0.988446 64.5311 1.52385 63.3157 2.24048C62.092 2.94886 61.1597 3.81375 60.527 4.82691C59.8944 5.84007 59.5947 6.96854 59.6197 8.22881C59.653 9.99154 60.1941 11.4083 61.2429 12.4791C62.2835 13.5499 63.5738 14.4478 65.1138 15.1644C66.6538 15.881 68.3104 16.4823 70.0835 16.9766C71.8566 17.479 73.5132 18.0144 75.0449 18.591C76.5849 19.1676 77.8669 19.876 78.9074 20.7162C79.948 21.5564 80.4807 22.6519 80.5057 24.0275C80.5307 24.9171 80.3226 25.7655 79.9064 26.5398C79.4901 27.3223 78.8824 27.9895 78.0916 28.5496C77.3008 29.1097 74.9783 30.7077 71.149 30.7077C65.6799 30.7077 61.5343 26.1444 61.1763 25.6007C61.1763 25.6007 59.4615 27.0422 58.7206 27.7094C61.0848 30.4936 66.1211 31.828 69.7755 31.9762C72.2978 32.0751 74.5454 31.8609 76.5183 31.4243C78.4912 30.9878 80.1478 30.337 81.5046 29.4557C82.8615 28.5826 83.8854 27.5447 84.5764 26.3421C85.2673 25.1312 85.6003 23.8463 85.567 22.4707C85.5337 20.8315 84.9926 19.4971 83.952 18.4839" fill="#CAAB79"/>
</g>
<defs>
<clipPath id="clip0_742_358">
<rect width="320" height="32" fill="white"/>
</clipPath>
</defs>
</svg>
